<?xml version="1.0" encoding="utf-8"?>
<!-- Generator: Adobe Illustrator 24.1.2, SVG Export Plug-In . SVG Version: 6.00 Build 0)  -->
<svg version="1.1" id="Layer_1" xmlns="http://www.w3.org/2000/svg" xmlns:xlink="http://www.w3.org/1999/xlink" x="0px" y="0px"
	 viewBox="0 0 396.8 116.4" style="enable-background:new 0 0 396.8 116.4;" xml:space="preserve">
<style type="text/css">
	.st0{fill:#D71920;}
	.st1{fill:#005DA4;}
	.st2{fill:#008C44;}
	.st3{fill:#FFCB05;}
</style>
<g>
	<g>
		<g>
			<path class="st0" d="M67.8,45.5c-2.7-7-9.2-11.4-15.8-11.4c-10.4,0-18.7,7-18.7,24.1c0,11.1,4.5,24.1,19.4,24.1
				c5.1,0,12.6-3.8,15.5-10.6l15,7.2c-6.5,11.8-17.8,19.4-30.6,19.4c-24.2,0-38.3-18.7-38.3-40s13.2-40,36.8-40
				c14.9,0,24.7,7.2,31.7,19.8L67.8,45.5z"/>
		</g>
		<g>
			<path class="st1" d="M112.6,20.3h19.6l28.6,75.8h-20.3l-3.8-11.9h-28l-3.8,11.9H84.6L112.6,20.3z M132.1,70.1l-9.4-31.3h-0.2
				l-9.4,31.3H132.1z"/>
		</g>
		<g>
			<path class="st2" d="M153.6,20.3h58.6V35h-19.8v61.1h-19V35h-19.8V20.3z"/>
		</g>
		<g>
			<path class="st3" d="M270,45.5c-2.7-7-9.2-11.4-15.8-11.4c-10.4,0-18.7,7-18.7,24.1c0,11.1,4.5,24.1,19.4,24.1
				c5.1,0,12.6-3.8,15.5-10.6l15,7.2c-6.5,11.8-17.8,19.4-30.6,19.4c-24.2,0-38.3-18.7-38.3-40s13.2-40,36.8-40
				c14.9,0,24.7,7.2,31.7,19.8L270,45.5z"/>
		</g>
		<g>
			<path class="st0" d="M293.8,20.3h19v27.3H341V20.3h19v75.8h-19V64.2h-28.2v31.9h-19V20.3z"/>
		</g>
		<g>
			<path class="st1" d="M374.3,19.2c4.6,0,8.2,3.7,8.2,8.2c0,4.6-3.7,8.2-8.2,8.2c-4.6,0-8.2-3.7-8.2-8.2
				C366.1,22.9,369.7,19.2,374.3,19.2z M374.3,34.4c3.7,0,6.8-3.2,6.8-7s-3.1-7-6.8-7c-3.7,0-6.8,3.2-6.8,7S370.6,34.4,374.3,34.4z
				 M371.3,22.6h3.6c2.1,0,3.2,0.9,3.2,2.7c0,1.8-1.1,2.6-2.4,2.8l2.7,4.2h-1.6l-2.7-4.2h-1.5v4.2h-1.4L371.3,22.6L371.3,22.6z
				 M372.7,26.8h1.7c1.3,0,2.3-0.2,2.3-1.5c0-1-0.9-1.4-2.2-1.4h-1.8V26.8z"/>
		</g>
	</g>
</g>
</svg>
