<?xml version="1.0" encoding="utf-8"?>
<!-- Generator: Adobe Illustrator 19.2.0, SVG Export Plug-In . SVG Version: 6.00 Build 0)  -->
<svg version="1.1" id="Layer_1" xmlns="http://www.w3.org/2000/svg" xmlns:xlink="http://www.w3.org/1999/xlink" x="0px" y="0px"
	 viewBox="0 0 396.8 116.4" style="enable-background:new 0 0 396.8 116.4;" xml:space="preserve">
<style type="text/css">
	.st0{fill:#D71920;}
	.st1{fill:#005DA4;}
	.st2{fill:#008C44;}
	.st3{fill:#FFCB05;}
</style>
<g>
	<g>
		<g>
			<path class="st0" d="M67.8,37.5c-2.7-7-9.2-11.4-15.8-11.4c-10.4,0-18.7,7-18.7,24.1c0,11.1,4.5,24.1,19.4,24.1
				c5.1,0,12.6-3.8,15.5-10.6l15,7.2c-6.5,11.8-17.8,19.4-30.6,19.4c-24.2,0-38.3-18.7-38.3-40c0-21.3,13.2-40,36.8-40
				c14.9,0,24.7,7.2,31.7,19.8L67.8,37.5z"/>
		</g>
		<g>
			<path class="st1" d="M112.6,12.3h19.6l28.6,75.8h-20.3l-3.8-11.9h-28l-3.8,11.9H84.6L112.6,12.3z M132.1,62.1l-9.4-31.3h-0.2
				l-9.4,31.3H132.1z"/>
		</g>
		<g>
			<path class="st2" d="M153.6,12.3h58.6V27h-19.8v61.1h-19V27h-19.8V12.3z"/>
		</g>
		<g>
			<path class="st3" d="M270,37.5c-2.7-7-9.2-11.4-15.8-11.4c-10.4,0-18.7,7-18.7,24.1c0,11.1,4.5,24.1,19.4,24.1
				c5.1,0,12.6-3.8,15.5-10.6l15,7.2c-6.5,11.8-17.8,19.4-30.6,19.4c-24.2,0-38.3-18.7-38.3-40c0-21.3,13.2-40,36.8-40
				c14.9,0,24.7,7.2,31.7,19.8L270,37.5z"/>
		</g>
		<g>
			<path class="st0" d="M293.8,12.3h19v27.3H341V12.3h19v75.8h-19V56.2h-28.2v31.9h-19V12.3z"/>
		</g>
		<g>
			<path class="st1" d="M374.3,11.2c4.6,0,8.2,3.7,8.2,8.2c0,4.6-3.7,8.2-8.2,8.2c-4.6,0-8.2-3.7-8.2-8.2
				C366.1,14.9,369.7,11.2,374.3,11.2z M374.3,26.4c3.7,0,6.8-3.2,6.8-7c0-3.8-3.1-7-6.8-7c-3.7,0-6.8,3.2-6.8,7
				C367.5,23.2,370.6,26.4,374.3,26.4z M371.3,14.6h3.6c2.1,0,3.2,0.9,3.2,2.7c0,1.8-1.1,2.6-2.4,2.8l2.7,4.2h-1.6l-2.7-4.2h-1.5
				v4.2h-1.4V14.6z M372.7,18.8h1.7c1.3,0,2.3-0.2,2.3-1.5c0-1-0.9-1.4-2.2-1.4h-1.8V18.8z"/>
		</g>
	</g>
	<g>
		<path class="st1" d="M22.5,104.9c0,0.9-1.3,1.3-2.6,1.3c-2.6,0-3.8-1.4-3.8-4.2c0-2.9,1.5-4.4,4-4.4c1.1,0,2.3,0.3,2.3,1.3
			c0,0.4-0.3,0.8-0.7,1.1c-0.4-0.4-1-0.6-1.6-0.6c-1.3,0-2,0.8-2,2.7c0,1.6,0.8,2.3,2,2.3c0.8,0,1.5-0.4,1.7-0.7
			C22.2,104,22.5,104.5,22.5,104.9z"/>
		<path class="st1" d="M34.1,101.8c0,2.9-1.2,4.5-3.8,4.5c-2.6,0-3.7-1.6-3.7-4.2c0-2.6,1-4.5,3.8-4.5
			C33.1,97.6,34.1,99.4,34.1,101.8z M28.7,102c0,1.4,0.4,2.6,1.7,2.6c1.4,0,1.6-1.3,1.6-2.6c0-1.4-0.3-2.6-1.6-2.6
			C28.9,99.3,28.7,100.6,28.7,102z"/>
		<path class="st1" d="M45.7,101.8c0,2.9-1.2,4.5-3.8,4.5c-2.6,0-3.7-1.6-3.7-4.2c0-2.6,1-4.5,3.8-4.5
			C44.7,97.6,45.7,99.4,45.7,101.8z M40.3,102c0,1.4,0.4,2.6,1.7,2.6c1.4,0,1.6-1.3,1.6-2.6c0-1.4-0.3-2.6-1.6-2.6
			C40.5,99.3,40.3,100.6,40.3,102z"/>
		<path class="st1" d="M56.3,106.1H54l-1.3-3h-0.6v3h-1.9v-8.4h3.1c2,0,2.7,1.2,2.7,2.5c0,0.9-0.5,1.8-1.5,2.4L56.3,106.1z
			 M52.1,101.5h0.5c1,0,1.4-0.6,1.4-1.1c0-0.7-0.6-0.9-1.1-0.9h-0.8V101.5z"/>
		<path class="st1" d="M63.6,97.7c2.7,0,3.7,1.3,3.7,4.1c0,3-1.5,4.3-3.9,4.3h-2.8v-8.4H63.6z M62.4,104.4h0.7
			c1.6,0,2.1-0.9,2.1-2.6c0-1.2-0.3-2.4-1.7-2.4h-1V104.4z"/>
		<path class="st1" d="M71.7,97.7h1.9v8.4h-1.9V97.7z"/>
		<path class="st1" d="M80.9,97.7l2.4,5.6l-0.1-5.6H85v8.4h-2.4l-2.4-5.5l0.1,5.5h-1.8v-8.4H80.9z"/>
		<path class="st1" d="M91.5,104.3l-0.4,1.8H89l2.5-8.4h2.2l2.5,8.4h-2.2l-0.4-1.8H91.5z M93.1,102.8l-0.6-2.8l-0.6,2.8H93.1z"/>
		<path class="st1" d="M102.9,106.1h-1.9v-6.7h-2.2v-1.7h6.3v1.7h-2.2V106.1z"/>
		<path class="st1" d="M109.3,97.7h4.9v1.7h-3v1.6h2.8v1.6h-2.8v1.7h3v1.7h-4.9V97.7z"/>
		<path class="st1" d="M122,97.7c2.7,0,3.7,1.3,3.7,4.1c0,3-1.5,4.3-3.9,4.3h-2.8v-8.4H122z M120.8,104.4h0.7c1.6,0,2.1-0.9,2.1-2.6
			c0-1.2-0.3-2.4-1.7-2.4h-1V104.4z"/>
		<path class="st1" d="M137,104.3l-0.4,1.8h-2.1l2.5-8.4h2.2l2.5,8.4h-2.2l-0.4-1.8H137z M138.6,102.8L138,100l-0.6,2.8H138.6z"/>
		<path class="st1" d="M147.6,103.4v2.7h-1.9v-8.4h3.2c2,0,2.6,1.3,2.6,2.7c0,1.6-1,2.9-3,2.9H147.6z M147.6,101.7h0.5
			c0.9,0,1.2-0.5,1.2-1.2c0-0.6-0.3-1.1-1-1.1h-0.8V101.7z"/>
		<path class="st1" d="M157.5,103.4v2.7h-1.9v-8.4h3.2c2,0,2.6,1.3,2.6,2.7c0,1.6-1,2.9-3,2.9H157.5z M157.5,101.7h0.5
			c0.9,0,1.2-0.5,1.2-1.2c0-0.6-0.3-1.1-1-1.1h-0.8V101.7z"/>
		<path class="st1" d="M171.6,106.1h-2.3l-1.3-3h-0.6v3h-1.9v-8.4h3.1c2,0,2.7,1.2,2.7,2.5c0,0.9-0.5,1.8-1.5,2.4L171.6,106.1z
			 M167.4,101.5h0.5c1,0,1.4-0.6,1.4-1.1c0-0.7-0.6-0.9-1.1-0.9h-0.8V101.5z"/>
		<path class="st1" d="M182.9,101.8c0,2.9-1.2,4.5-3.8,4.5c-2.6,0-3.7-1.6-3.7-4.2c0-2.6,1-4.5,3.8-4.5
			C181.9,97.6,182.9,99.4,182.9,101.8z M177.5,102c0,1.4,0.4,2.6,1.7,2.6c1.4,0,1.6-1.3,1.6-2.6c0-1.4-0.3-2.6-1.6-2.6
			C177.7,99.3,177.5,100.6,177.5,102z"/>
		<path class="st1" d="M189,104.3l-0.4,1.8h-2.1l2.5-8.4h2.2l2.5,8.4h-2.2l-0.4-1.8H189z M190.6,102.8L190,100l-0.6,2.8H190.6z"/>
		<path class="st1" d="M203.5,104.9c0,0.9-1.3,1.3-2.6,1.3c-2.6,0-3.8-1.4-3.8-4.2c0-2.9,1.5-4.4,4-4.4c1.1,0,2.3,0.3,2.3,1.3
			c0,0.4-0.3,0.8-0.7,1.1c-0.4-0.4-1-0.6-1.6-0.6c-1.3,0-2,0.8-2,2.7c0,1.6,0.8,2.3,2,2.3c0.8,0,1.5-0.4,1.7-0.7
			C203.3,104,203.5,104.5,203.5,104.9z"/>
		<path class="st1" d="M210.1,102.6v3.5h-1.9v-8.4h1.9v3.2h2.3v-3.2h1.9v8.4h-1.9v-3.5H210.1z"/>
		<path class="st1" d="M228,106.1h-1.9v-6.7h-2.2v-1.7h6.3v1.7H228V106.1z"/>
		<path class="st1" d="M241.2,101.8c0,2.9-1.2,4.5-3.8,4.5c-2.6,0-3.7-1.6-3.7-4.2c0-2.6,1-4.5,3.8-4.5
			C240.3,97.6,241.2,99.4,241.2,101.8z M235.9,102c0,1.4,0.4,2.6,1.7,2.6c1.4,0,1.6-1.3,1.6-2.6c0-1.4-0.3-2.6-1.6-2.6
			C236,99.3,235.9,100.6,235.9,102z"/>
		<path class="st1" d="M256.9,104.9c0,0.9-1.3,1.3-2.6,1.3c-2.6,0-3.8-1.4-3.8-4.2c0-2.9,1.5-4.4,4-4.4c1.1,0,2.3,0.3,2.3,1.3
			c0,0.4-0.3,0.8-0.7,1.1c-0.4-0.4-1-0.6-1.6-0.6c-1.3,0-2,0.8-2,2.7c0,1.6,0.8,2.3,2,2.3c0.8,0,1.5-0.4,1.7-0.7
			C256.7,104,256.9,104.5,256.9,104.9z"/>
		<path class="st1" d="M263.5,102.6v3.5h-1.9v-8.4h1.9v3.2h2.3v-3.2h1.9v8.4h-1.9v-3.5H263.5z"/>
		<path class="st1" d="M272.6,97.7h1.9v8.4h-1.9V97.7z"/>
		<path class="st1" d="M279.4,97.7h1.9v6.7h3v1.7h-4.9V97.7z"/>
		<path class="st1" d="M291.5,97.7c2.7,0,3.7,1.3,3.7,4.1c0,3-1.5,4.3-3.9,4.3h-2.8v-8.4H291.5z M290.3,104.4h0.7
			c1.6,0,2.1-0.9,2.1-2.6c0-1.2-0.3-2.4-1.7-2.4h-1V104.4z"/>
		<path class="st1" d="M306.8,102.6v3.5h-1.9v-8.4h1.9v3.2h2.3v-3.2h1.9v8.4h-1.9v-3.5H306.8z"/>
		<path class="st1" d="M315.9,97.7h4.9v1.7h-3v1.6h2.8v1.6h-2.8v1.7h3v1.7h-4.9V97.7z"/>
		<path class="st1" d="M327.2,104.3l-0.4,1.8h-2.1l2.5-8.4h2.2l2.5,8.4h-2.2l-0.4-1.8H327.2z M328.8,102.8l-0.6-2.8l-0.6,2.8H328.8z
			"/>
		<path class="st1" d="M335.8,97.7h1.9v6.7h3v1.7h-4.9V97.7z"/>
		<path class="st1" d="M347.5,106.1h-1.9v-6.7h-2.2v-1.7h6.3v1.7h-2.2V106.1z"/>
		<path class="st1" d="M355.9,102.6v3.5H354v-8.4h1.9v3.2h2.3v-3.2h1.9v8.4h-1.9v-3.5H355.9z"/>
	</g>
</g>
</svg>
